<?xml version="1.0" encoding="UTF-8" standalone="no"?>
<!-- Created with Inkscape (http://www.inkscape.org/) -->

<svg
   xmlns:dc="http://purl.org/dc/elements/1.1/"
   xmlns:cc="http://creativecommons.org/ns#"
   xmlns:rdf="http://www.w3.org/1999/02/22-rdf-syntax-ns#"
   xmlns:svg="http://www.w3.org/2000/svg"
   xmlns="http://www.w3.org/2000/svg"
   xmlns:sodipodi="http://sodipodi.sourceforge.net/DTD/sodipodi-0.dtd"
   xmlns:inkscape="http://www.inkscape.org/namespaces/inkscape"
   width="178.06499"
   height="170.62717"
   id="svg2"
   version="1.1"
   inkscape:version="0.48.5 r10040"
   sodipodi:docname="wizzzard.svg"
   inkscape:export-filename="C:\Users\martin\Pictures\wizzzard.png"
   inkscape:export-xdpi="110"
   inkscape:export-ydpi="110">
  <defs
     id="defs4" />
  <sodipodi:namedview
     id="base"
     pagecolor="#ffffff"
     bordercolor="#666666"
     borderopacity="1.0"
     inkscape:pageopacity="0.0"
     inkscape:pageshadow="2"
     inkscape:zoom="2.8"
     inkscape:cx="68.232972"
     inkscape:cy="69.572854"
     inkscape:document-units="px"
     inkscape:current-layer="layer1"
     showgrid="false"
     showguides="true"
     inkscape:guide-bbox="true"
     fit-margin-top="0"
     fit-margin-left="0"
     fit-margin-right="0"
     fit-margin-bottom="0"
     inkscape:window-width="1920"
     inkscape:window-height="1137"
     inkscape:window-x="1912"
     inkscape:window-y="-8"
     inkscape:window-maximized="1">
    <sodipodi:guide
       orientation="1,0"
       position="0.5,229.72616"
       id="guide3766" />
    <sodipodi:guide
       orientation="0,1"
       position="-30.81473,171.13731"
       id="guide3768" />
  </sodipodi:namedview>
  <metadata
     id="metadata7">
    <rdf:RDF>
      <cc:Work
         rdf:about="">
        <dc:format>image/svg+xml</dc:format>
        <dc:type
           rdf:resource="http://purl.org/dc/dcmitype/StillImage" />
        <dc:title></dc:title>
      </cc:Work>
    </rdf:RDF>
  </metadata>
  <g
     inkscape:label="Ebene 1"
     inkscape:groupmode="layer"
     id="layer1"
     transform="translate(-190.92391,-357.88738)">
    <path
       style="fill:#72000f;fill-opacity:1;stroke:#000000;stroke-width:1px;stroke-linecap:butt;stroke-linejoin:miter;stroke-opacity:1"
       d="m 324.23632,369.63763 7.26519,5.68034 -4.41942,2.52538 -28.66307,-2.0203 -6.43972,11.11167 -0.88388,15.15228 4.16688,20.20306 6.69226,14.64721 9.72272,14.14214 4.67195,0 12.35499,8.65736 -0.27194,5.6269 8.31438,3.10152 8.81944,-3.96954 13.36513,-11.54569 7.30422,2.09138 2.25345,7.6472 -4.31253,9.16245 -8.5626,15.4552 -27.33457,23.33072 -45.05214,13.4931 -40.9495,3.88453 -29.60526,-7.59264 -20.93178,-11.14058 -0.31661,-6.56936 5.77284,-3.11203 13.93793,-1.44506 12.52585,-0.40302 5.61225,-11.43057 -3.79299,-8.56874 3.27933,-16.60294 4.6305,0.59335 2.66207,-18.75293 13.80443,-12.38534 26.09687,-57.22606 -0.73356,-9.71655 4.5434,0.27822 6.46369,-5.55291 14.25303,6.28819 23.75677,4.96206"
       id="path2985"
       inkscape:connector-curvature="0"
       sodipodi:nodetypes="cccccccccccccccccccccccccccccccccccccccc" />
    <path
       sodipodi:type="star"
       style="fill:#ffbe00;fill-opacity:1;stroke:none"
       id="path3815-4"
       sodipodi:sides="7"
       sodipodi:cx="162.5"
       sodipodi:cy="388.43362"
       sodipodi:r1="32.646843"
       sodipodi:r2="14.691079"
       sodipodi:arg1="1.746736"
       sodipodi:arg2="2.1955349"
       inkscape:flatsided="false"
       inkscape:rounded="0"
       inkscape:randomized="0"
       d="m 156.78571,420.57648 -2.87831,-20.22669 -20.1005,3.65697 14.01927,-14.86149 -15.39159,-13.43512 20.36005,1.69472 0.9075,-20.4103 11.3693,16.97477 16.52323,-12.01609 -6.18277,19.47246 19.69663,5.42647 -19.07908,7.30701 8.03806,18.78279 -17.60846,-10.36078 z"
       inkscape:transform-center-x="-0.32207195"
       inkscape:transform-center-y="0.089137373"
       transform="matrix(0.25329087,0,0,0.25329087,201.91103,391.50802)" />
    <path
       style="fill:#585858;fill-opacity:1;stroke:#000000;stroke-width:1px;stroke-linecap:butt;stroke-linejoin:miter;stroke-opacity:1"
       d="m 303.34352,458.79451 7.19734,-4.79822 1.13642,-2.77792 4.67195,0 12.35499,8.65736 -0.27194,5.6269 -7.09045,5.37436 -9.86838,3.60661 -11.88868,6.88959 0.73823,4.36422 -5.57524,4.11167 -7.84806,2.59646 -13.10829,0.55545 -8.39421,-1.41802 -3.13081,-1.40665 -0.29086,-1.92385 -13.94789,-0.77411 -18.75486,-1.01812 -3.79299,-8.56874 3.27933,-16.60294 4.6305,0.59335 6.45014,0.81878 9.63755,1.37798 8.37478,1.73859 0.16728,-1.79694 1.80878,-1.1656 4.96552,-1.79694 8.6273,-0.40798 9.76374,-0.91306 3.57654,0.98098 1.97769,1.56378 5.78706,-0.10199 z"
       id="path2985-7"
       inkscape:connector-curvature="0"
       sodipodi:nodetypes="ccccccccccccccccccccccccccccccccc" />
    <path
       style="fill:#730005;fill-opacity:1;stroke:#000000;stroke-width:1px;stroke-linecap:butt;stroke-linejoin:miter;stroke-opacity:1"
       d="m 268.57143,487.00504 7.5,1.78571 7.14286,0.35715 6.42857,-2.85715 4.64285,-2.14285 0.35715,-2.14286 -5.35715,-12.14286 -3.21428,-5.71428 -2.5,-0.35715 -7.14286,-1.07143 -11.78571,2.14286 -2.85715,3.21429 1.07143,4.64285 z"
       id="path3813"
       inkscape:connector-curvature="0" />
    <path
       sodipodi:type="star"
       style="fill:#ffbe00;fill-opacity:1;stroke:none"
       id="path3815"
       sodipodi:sides="7"
       sodipodi:cx="162.5"
       sodipodi:cy="388.43362"
       sodipodi:r1="32.646843"
       sodipodi:r2="14.691079"
       sodipodi:arg1="1.746736"
       sodipodi:arg2="2.1955349"
       inkscape:flatsided="false"
       inkscape:rounded="0"
       inkscape:randomized="0"
       d="m 156.78571,420.57648 -2.87831,-20.22669 -20.1005,3.65697 14.01927,-14.86149 -15.39159,-13.43512 20.36005,1.69472 0.9075,-20.4103 11.3693,16.97477 16.52323,-12.01609 -6.18277,19.47246 19.69663,5.42647 -19.07908,7.30701 8.03806,18.78279 -17.60846,-10.36078 z"
       inkscape:transform-center-x="-0.21187929"
       inkscape:transform-center-y="0.11545628"
       transform="matrix(0.3281028,0,0.02870516,0.3281028,223.1571,313.29844)" />
    <path
       sodipodi:type="star"
       style="fill:#ffbe00;fill-opacity:1;stroke:none"
       id="path3815-0"
       sodipodi:sides="7"
       sodipodi:cx="162.5"
       sodipodi:cy="388.43362"
       sodipodi:r1="32.646843"
       sodipodi:r2="14.691079"
       sodipodi:arg1="1.746736"
       sodipodi:arg2="2.1955349"
       inkscape:flatsided="false"
       inkscape:rounded="0"
       inkscape:randomized="0"
       d="m 156.78571,420.57648 -2.87831,-20.22669 -20.1005,3.65697 14.01927,-14.86149 -15.39159,-13.43512 20.36005,1.69472 0.9075,-20.4103 11.3693,16.97477 16.52323,-12.01609 -6.18277,19.47246 19.69663,5.42647 -19.07908,7.30701 8.03806,18.78279 -17.60846,-10.36078 z"
       inkscape:transform-center-x="-0.28583426"
       inkscape:transform-center-y="0.079101647"
       transform="matrix(0.22479873,0,0,0.22479873,240.86293,317.92955)" />
    <path
       sodipodi:type="star"
       style="fill:#ffbe00;fill-opacity:1;stroke:none"
       id="path3815-9"
       sodipodi:sides="7"
       sodipodi:cx="162.5"
       sodipodi:cy="388.43362"
       sodipodi:r1="32.646843"
       sodipodi:r2="14.691079"
       sodipodi:arg1="1.746736"
       sodipodi:arg2="2.1955349"
       inkscape:flatsided="false"
       inkscape:rounded="0"
       inkscape:randomized="0"
       d="m 156.78571,420.57648 -2.87831,-20.22669 -20.1005,3.65697 14.01927,-14.86149 -15.39159,-13.43512 20.36005,1.69472 0.9075,-20.4103 11.3693,16.97477 16.52323,-12.01609 -6.18277,19.47246 19.69663,5.42647 -19.07908,7.30701 8.03806,18.78279 -17.60846,-10.36078 z"
       inkscape:transform-center-x="-0.14401895"
       inkscape:transform-center-y="0.3866514"
       transform="matrix(-0.03189076,0.24553003,-0.2483201,-0.01040974,357.21616,407.61041)" />
    <path
       sodipodi:type="star"
       style="fill:#ffbe00;fill-opacity:1;stroke:none"
       id="path3815-8"
       sodipodi:sides="7"
       sodipodi:cx="162.5"
       sodipodi:cy="388.43362"
       sodipodi:r1="32.646843"
       sodipodi:r2="14.691079"
       sodipodi:arg1="1.746736"
       sodipodi:arg2="2.1955349"
       inkscape:flatsided="false"
       inkscape:rounded="0"
       inkscape:randomized="0"
       d="m 156.78571,420.57648 -2.87831,-20.22669 -20.1005,3.65697 14.01927,-14.86149 -15.39159,-13.43512 20.36005,1.69472 0.9075,-20.4103 11.3693,16.97477 16.52323,-12.01609 -6.18277,19.47246 19.69663,5.42647 -19.07908,7.30701 8.03806,18.78279 -17.60846,-10.36078 z"
       inkscape:transform-center-x="0.18082509"
       inkscape:transform-center-y="0.46286835"
       transform="matrix(0.03927292,-0.27327702,0.29595114,-0.11850291,219.02401,565.9639)" />
    <path
       sodipodi:type="star"
       style="fill:#ffbe00;fill-opacity:1;stroke:none"
       id="path3815-82"
       sodipodi:sides="7"
       sodipodi:cx="162.5"
       sodipodi:cy="388.43362"
       sodipodi:r1="32.646843"
       sodipodi:r2="14.691079"
       sodipodi:arg1="1.746736"
       sodipodi:arg2="2.1955349"
       inkscape:flatsided="false"
       inkscape:rounded="0"
       inkscape:randomized="0"
       d="m 156.78571,420.57648 -2.87831,-20.22669 -20.1005,3.65697 14.01927,-14.86149 -15.39159,-13.43512 20.36005,1.69472 0.9075,-20.4103 11.3693,16.97477 16.52323,-12.01609 -6.18277,19.47246 19.69663,5.42647 -19.07908,7.30701 8.03806,18.78279 -17.60846,-10.36078 z"
       inkscape:transform-center-x="0.2827674"
       inkscape:transform-center-y="-0.32539971"
       transform="matrix(0.12506958,-0.26651313,0.31203455,0.02806714,171.45175,534.84332)" />
    <path
       sodipodi:type="star"
       style="fill:#ffbe00;fill-opacity:1;stroke:none"
       id="path3815-8-4"
       sodipodi:sides="7"
       sodipodi:cx="162.5"
       sodipodi:cy="388.43362"
       sodipodi:r1="32.646843"
       sodipodi:r2="14.691079"
       sodipodi:arg1="1.746736"
       sodipodi:arg2="2.1955349"
       inkscape:flatsided="false"
       inkscape:rounded="0"
       inkscape:randomized="0"
       d="m 156.78571,420.57648 -2.87831,-20.22669 -20.1005,3.65697 14.01927,-14.86149 -15.39159,-13.43512 20.36005,1.69472 0.9075,-20.4103 11.3693,16.97477 16.52323,-12.01609 -6.18277,19.47246 19.69663,5.42647 -19.07908,7.30701 8.03806,18.78279 -17.60846,-10.36078 z"
       inkscape:transform-center-x="-0.44077021"
       inkscape:transform-center-y="-0.014715705"
       transform="matrix(0.19360435,0.18072943,-0.25119536,0.12782449,284.79053,429.85627)" />
    <path
       style="fill:none;stroke:#000000;stroke-width:1px;stroke-linecap:butt;stroke-linejoin:miter;stroke-opacity:1"
       d="m 32.5,139.91288 10,3.57143 17.321429,3.03571 6.071428,0 21.428572,-2.5 9.107143,-2.85714 12.321428,-4.82143 17.32143,-8.92857 10,-6.96428 9.46428,-10.17858"
       id="path3881"
       inkscape:connector-curvature="0"
       transform="translate(190.92391,357.88738)" />
    <path
       sodipodi:type="star"
       style="fill:#ffbe00;fill-opacity:1;stroke:none"
       id="path3815-8-4-5"
       sodipodi:sides="7"
       sodipodi:cx="162.5"
       sodipodi:cy="388.43362"
       sodipodi:r1="32.646843"
       sodipodi:r2="14.691079"
       sodipodi:arg1="1.746736"
       sodipodi:arg2="2.1955349"
       inkscape:flatsided="false"
       inkscape:rounded="0"
       inkscape:randomized="0"
       d="m 156.78571,420.57648 -2.87831,-20.22669 -20.1005,3.65697 14.01927,-14.86149 -15.39159,-13.43512 20.36005,1.69472 0.9075,-20.4103 11.3693,16.97477 16.52323,-12.01609 -6.18277,19.47246 19.69663,5.42647 -19.07908,7.30701 8.03806,18.78279 -17.60846,-10.36078 z"
       inkscape:transform-center-x="-0.19299481"
       inkscape:transform-center-y="0.2913618"
       transform="matrix(0.14621653,-0.16048532,0.21370356,0.0878049,159.83848,504.96421)" />
    <path
       style="fill:none;stroke:#000000;stroke-width:1px;stroke-linecap:butt;stroke-linejoin:miter;stroke-opacity:1"
       d="m 107.58929,18.216452 -6.07143,-6.160714"
       id="path3901"
       inkscape:connector-curvature="0"
       transform="translate(190.92391,357.88738)" />
  </g>
</svg>
